<?xml version="1.0" encoding="UTF-8" standalone="no"?>
<!DOCTYPE svg PUBLIC "-//W3C//DTD SVG 1.1//EN" "http://www.w3.org/Graphics/SVG/1.1/DTD/svg11.dtd">
<svg width="100%" height="100%" viewBox="0 0 414 413" version="1.1" xmlns="http://www.w3.org/2000/svg" xmlns:xlink="http://www.w3.org/1999/xlink" xml:space="preserve" xmlns:serif="http://www.serif.com/" style="fill-rule:evenodd;clip-rule:evenodd;">
    <g transform="matrix(1.27214,0,0,1.25382,-106.187,-101.977)">
        <path d="M275,185.5L262,185.5L261,184.5L257,184.5L256,183.5L254,183.5L253,182.5L252,182.5L251,181.5L250,181.5L243.5,175L243.5,174L240.5,171L240.5,170L239.5,169L239.5,168L238.5,167L238.5,166L237.5,165L237.5,162L236.5,161L236.5,102L237.5,101L237.5,100L242,95.5L243,95.5L244,94.5L245,94.5L246,93.5L254,93.5L255,94.5L256,94.5L258,96.5L259,96.5L260.5,98L260.5,99L262.5,101L262.5,103L263.5,104L263.5,157L264,157.5L324,157.5L325,158.5L326,158.5L327,159.5L328,159.5L330.5,162L330.5,163L332.5,165L332.5,167L333.5,168L333.5,173L332.5,174L332.5,176L331.5,177L331.5,178L327,182.5L326,182.5L325,183.5L324,183.5L323,184.5L315,184.5L314,183.5L313,183.5L311,181.5L310,181.5L309,180.5L308,180.5L307,179.5L306,179.5L305,178.5L296,178.5L295,179.5L293,179.5L292,180.5L290,180.5L289,181.5L288,181.5L287,182.5L285,182.5L284,183.5L282,183.5L281,184.5L276,184.5L275,185.5" style="fill:white;fill-rule:nonzero;stroke:black;stroke-width:2px;"/>
    </g>
    <g transform="matrix(1.27214,0,0,1.25382,-106.187,-101.977)">
        <path d="M213,184.5L176,184.5L175,183.5L174,183.5L173,182.5L172,182.5L168.5,179L168.5,178L167.5,177L167.5,176L166.5,175L166.5,167L167.5,166L167.5,164L172,159.5L173,159.5L174,158.5L175,158.5L176,157.5L219,157.5L219.5,158L219.5,163L218.5,164L218.5,168L217.5,169L217.5,172L216.5,173L216.5,175L215.5,176L215.5,179L214.5,180L214.5,183L213,184.5" style="fill:rgb(254,247,247);fill-rule:nonzero;stroke:black;stroke-width:2px;"/>
    </g>
    <g transform="matrix(1.27214,0,0,1.25382,-106.187,-101.977)">
        <path d="M227,355.5L225,355.5L223.5,354L223.5,348L222.5,347L222.5,345L221.5,344L221.5,343L217,338.5L216,338.5L215,337.5L214,337.5L212,335.5L211,335.5L208.5,333L208.5,332L206.5,330L206.5,329L205.5,328L205.5,326L204.5,325L204.5,321L203.5,320L203.5,311L203,310.5L201,310.5L200,311.5L196,311.5L195,312.5L186,312.5L185,313.5L178,313.5L177,312.5L167,312.5L166,311.5L162,311.5L161,310.5L157,310.5L156,309.5L154,309.5L153,308.5L152,308.5L151,307.5L149,307.5L148,306.5L147,306.5L146,305.5L145,305.5L143,303.5L142,303.5L131.5,293L131.5,292L130.5,291L130.5,290L128.5,288L128.5,286L127.5,285L127.5,283L126.5,282L126.5,279L125.5,278L125.5,275L124.5,274L124.5,266L125.5,265L125.5,261L126.5,260L126.5,257L127.5,256L127.5,254L128.5,253L128.5,251L129.5,250L129.5,249L130.5,248L130.5,247L131.5,246L131.5,244L132.5,243L132.5,242L133.5,241L133.5,240L135.5,238L135.5,237L136.5,236L136.5,235L137.5,234L137.5,233L139.5,231L139.5,230L141.5,228L141.5,227L142.5,226L142.5,225L143.5,224L143.5,223L144.5,222L144.5,221L145.5,220L145.5,219L146.5,218L146.5,217L147.5,216L147.5,214L148.5,213L148.5,212L149.5,211L149.5,208L150.5,207L150.5,204L151.5,203L151.5,200L153,198.5L158,198.5L159.5,200L159.5,204L160.5,205L160.5,207L161.5,208L161.5,209L162.5,210L162.5,211L166,214.5L167,214.5L169,216.5L170,216.5L171,217.5L172,217.5L173,218.5L174,218.5L175,219.5L178,219.5L179,220.5L182,220.5L183,221.5L194,221.5L195,222.5L202,222.5L203,223.5L206,223.5L207,224.5L208,224.5L209,225.5L210,225.5L211,226.5L212,226.5L214,228.5L215,228.5L220.5,234L220.5,235L222.5,237L222.5,238L223.5,239L223.5,241L224.5,242L224.5,245L225.5,246L225.5,256L224.5,257L224.5,259L223.5,260L223.5,261L222.5,262L222.5,263L221,264.5L220.5,264L220.5,254L219.5,253L219.5,250L218.5,249L218.5,248L217.5,247L217.5,246L216.5,245L216.5,244L209,236.5L208,236.5L207,235.5L205,235.5L204,234.5L203,234.5L202,233.5L199,233.5L198,232.5L192,232.5L191,231.5L180,231.5L179,230.5L175,230.5L174,229.5L172,229.5L171,228.5L169,228.5L168,227.5L167,227.5L166,226.5L165,226.5L164,225.5L163,225.5L161,223.5L160,223.5L157,220.5L155.5,222L155.5,223L154.5,224L154.5,225L153.5,226L153.5,227L152.5,228L152.5,229L151.5,230L151.5,231L150.5,232L150.5,233L149.5,234L149.5,235L148.5,236L148.5,237L147.5,238L147.5,239L146.5,240L146.5,241L145.5,242L145.5,243L144.5,244L144.5,245L143.5,246L143.5,247L142.5,248L142.5,249L141.5,250L141.5,251L140.5,252L140.5,254L139.5,255L139.5,257L138.5,258L138.5,261L137.5,262L137.5,277L138.5,278L138.5,280L139.5,281L139.5,282L140.5,283L140.5,284L141.5,285L141.5,286L144.5,289L144.5,290L147,292.5L148,292.5L151,295.5L152,295.5L154,297.5L155,297.5L156,298.5L158,298.5L159,299.5L160,299.5L161,300.5L164,300.5L165,301.5L169,301.5L170,302.5L191,302.5L192,301.5L196,301.5L197,300.5L200,300.5L201,299.5L204,299.5L205,298.5L207,298.5L208,297.5L211,297.5L212,296.5L217,296.5L217.5,297L217.5,299L218.5,300L218.5,301L217.5,302L217.5,306L216.5,307L216.5,310L215.5,311L215.5,321L216.5,322L216.5,323L217.5,324L217.5,325L222,329.5L223,329.5L224,330.5L226,330.5L227,331.5L230.5,328L230.5,327L232.5,325L232.5,324L237,319.5L238,319.5L242,315.5L243,315.5L244,314.5L245,314.5L246,313.5L247,313.5L248,312.5L249,312.5L250,311.5L251,311.5L252,310.5L255,310.5L256,309.5L261,309.5L262,308.5L279,308.5L280,309.5L282,309.5L283,308.5L293,308.5L294,307.5L298,307.5L299,306.5L302,306.5L303,305.5L305,305.5L306,304.5L308,304.5L309,303.5L310,303.5L311,302.5L312,302.5L313,301.5L315,301.5L317,299.5L318,299.5L319,298.5L320,298.5L322,296.5L323,296.5L326,293.5L327,293.5L337.5,283L337.5,282L340.5,279L340.5,278L341.5,277L341.5,276L343.5,274L343.5,273L345.5,271L345.5,270L346.5,269L346.5,267L347.5,266L347.5,265L348.5,264L348.5,263L349.5,262L349.5,260L350.5,259L350.5,256L351.5,255L351.5,253L352.5,252L352.5,248L353.5,247L353,246.5L352,246.5L351,247.5L350,247.5L349,248.5L348,248.5L347,249.5L346,249.5L345,250.5L343,250.5L342,251.5L340,251.5L339,252.5L336,252.5L335,253.5L329,253.5L328,254.5L318,254.5L317,253.5L293,253.5L292,254.5L287,254.5L286,255.5L283,255.5L282,256.5L281,256.5L280,257.5L278,257.5L277,258.5L276,258.5L275,259.5L274,259.5L272,261.5L271,261.5L269,263.5L268,263.5L256,275.5L254,275.5L253,274.5L252,274.5L249,271.5L248,271.5L246,269.5L245,269.5L244.5,269L244.5,268L246.5,266L246.5,265L247.5,264L247.5,263L249.5,261L249.5,260L250.5,259L250.5,258L252.5,256L252.5,255L254.5,253L254.5,252L255.5,251L255.5,250L257.5,248L257.5,247L258.5,246L258.5,245L260.5,243L260.5,242L261.5,241L261.5,240L262.5,239L262.5,238L264.5,236L264.5,235L266.5,233L266.5,232L267.5,231L267.5,230L268.5,229L268.5,228L270.5,226L270.5,225L271.5,224L271.5,223L272.5,222L272.5,221L274.5,219L274.5,218L275.5,217L275.5,216L276.5,215L276.5,214L278.5,212L278.5,211L279.5,210L279.5,209L280.5,208L280.5,207L282.5,205L282.5,204L283.5,203L283.5,202L284.5,201L284.5,200L284,199.5L281,199.5L280,200.5L257,200.5L256,199.5L253,199.5L252,198.5L249,198.5L248,197.5L246,197.5L245,196.5L244,196.5L243,195.5L242,195.5L240,193.5L239,193.5L237,191.5L236,191.5L233,188.5L232,188.5L231.5,189L231.5,191L230.5,192L230.5,194L229.5,195L229.5,198L228.5,199L228.5,201L227.5,202L227.5,204L226.5,205L226.5,207L225.5,208L225.5,210L224.5,211L224.5,213L223.5,214L223.5,216L222.5,217L222.5,220L221.5,221L221.5,222L220.5,223L220.5,224L220,224.5L219,223.5L218,223.5L216,221.5L215,221.5L214,220.5L213,220.5L212,219.5L211,219.5L209.5,218L209.5,215L210.5,214L210.5,212L211.5,211L211.5,210L212.5,209L212.5,207L213.5,206L213.5,204L214.5,203L214.5,201L215.5,200L215.5,198L216.5,197L216.5,195L217.5,194L217.5,192L218.5,191L218.5,189L219.5,188L219.5,186L220.5,185L220.5,182L221.5,181L221.5,179L222.5,178L222.5,175L223.5,174L223.5,171L224.5,170L224.5,167L225.5,166L225.5,162L226.5,161L226.5,158L227,157.5L229,157.5L230.5,159L230.5,161L231.5,162L231.5,165L232.5,166L232.5,168L233.5,169L233.5,170L234.5,171L234.5,172L235.5,173L235.5,174L236.5,175L236.5,176L239.5,179L239.5,180L244,184.5L245,184.5L247,186.5L248,186.5L249,187.5L250,187.5L251,188.5L252,188.5L253,189.5L255,189.5L256,190.5L259,190.5L260,191.5L277,191.5L278,190.5L281,190.5L282,189.5L285,189.5L286,188.5L288,188.5L289,187.5L291,187.5L292,186.5L293,186.5L294,185.5L296,185.5L297,184.5L303,184.5L304,185.5L305,185.5L305.5,186L305.5,188L304.5,189L304.5,190L302.5,192L302.5,193L301.5,194L301.5,195L299.5,197L299.5,198L297.5,200L297.5,201L296.5,202L296.5,203L295.5,204L295.5,205L293.5,207L293.5,208L292.5,209L292.5,210L291.5,211L291.5,212L290.5,213L290.5,214L288.5,216L288.5,217L287.5,218L287.5,219L286.5,220L286.5,221L285.5,222L285.5,223L284.5,224L284.5,225L282.5,227L282.5,228L281.5,229L281.5,230L280.5,231L280.5,232L279.5,233L279.5,234L277.5,236L277.5,237L276.5,238L276.5,239L275.5,240L275.5,241L273.5,243L273.5,244L272.5,245L272.5,246L271.5,247L272,247.5L273,247.5L274,246.5L275,246.5L276,245.5L279,245.5L280,244.5L282,244.5L283,243.5L287,243.5L288,242.5L293,242.5L294,241.5L309,241.5L310,242.5L328,242.5L329,241.5L333,241.5L334,240.5L336,240.5L337,239.5L338,239.5L339,238.5L340,238.5L341,237.5L342,237.5L343,236.5L344,236.5L345,235.5L346,235.5L356.5,225L356.5,224L358,222.5L367,222.5L367.5,223L367.5,232L366.5,233L366.5,240L365.5,241L365.5,245L364.5,246L364.5,249L363.5,250L363.5,253L362.5,254L362.5,257L361.5,258L361.5,260L360.5,261L360.5,262L359.5,263L359.5,265L358.5,266L358.5,267L357.5,268L357.5,270L356.5,271L356.5,272L355.5,273L355.5,274L354.5,275L354.5,276L352.5,278L352.5,279L351.5,280L351.5,281L350.5,282L350.5,283L348.5,285L348.5,286L345.5,289L345.5,290L334,301.5L333,301.5L329,305.5L328,305.5L327,306.5L326,306.5L324,308.5L323,308.5L322,309.5L321,309.5L320,310.5L319,310.5L318,311.5L317,311.5L316,312.5L315,312.5L314,313.5L312,313.5L311,314.5L309,314.5L308,315.5L306,315.5L305,316.5L303,316.5L302,317.5L298,317.5L297,318.5L286,318.5L285,319.5L278,319.5L277,318.5L270,318.5L269,319.5L261,319.5L260,320.5L257,320.5L256,321.5L254,321.5L253,322.5L251,322.5L250,323.5L249,323.5L248,324.5L247,324.5L245,326.5L244,326.5L235.5,335L235.5,336L233.5,338L233.5,339L232.5,340L232.5,341L231.5,342L231.5,344L230.5,345L230.5,347L229.5,348L229.5,350L228.5,351L228.5,353L227.5,354L227.5,355L227,355.5" style="fill:url(#_Radial1);fill-rule:nonzero;stroke:black;stroke-width:2px;"/>
    </g>
    <g transform="matrix(1.27214,0,0,1.25382,-106.187,-101.977)">
        <path d="M250,404.5L249,404.5L248,403.5L245,403.5L244,402.5L243,402.5L237.5,397L237.5,396L236.5,395L236.5,346L237.5,345L237.5,343L238.5,342L238.5,341L240.5,339L240.5,338L247,331.5L248,331.5L250,329.5L251,329.5L252,328.5L254,328.5L255,327.5L257,327.5L258,326.5L263,326.5L263.5,327L263.5,391L262.5,392L262.5,395L261.5,396L261.5,397L260.5,398L260.5,399L258,401.5L257,401.5L256,402.5L255,402.5L254,403.5L251,403.5L250,404.5" style="fill:rgb(255,248,248);fill-rule:nonzero;stroke:black;stroke-width:2px;"/>
    </g>
    <defs>
        <radialGradient id="_Radial1" cx="0" cy="0" r="1" gradientUnits="userSpaceOnUse" gradientTransform="matrix(121.5,0,0,99,246,256.5)"><stop offset="0" style="stop-color:rgb(255,0,1);stop-opacity:1"/><stop offset="0.54" style="stop-color:rgb(255,198,1);stop-opacity:1"/><stop offset="1" style="stop-color:rgb(255,120,0);stop-opacity:1"/></radialGradient>
    </defs>
</svg>
